<svg width="749" height="287" viewBox="0 0 749 287" xmlns="http://www.w3.org/2000/svg">
<path d="M16.86 199.48V25.48H80.23C99.1567 25.48 113.88 30.7833 124.4 41.39C134.92 51.9967 140.177 64.5333 140.17 79C140.245 89.8573 136.992 100.477 130.85 109.43C124.55 118.517 115.493 125.04 103.68 129L130.58 173H150.68V197.42C136.407 203.107 124.243 203.773 114.19 199.42C109.91 197.5 106.063 193.523 102.65 187.49L73 133.42H47.33V199.48H16.86ZM47.33 50.82V108.08H80.09C89.17 108.08 96.1133 105.24 100.92 99.56C105.684 93.997 108.249 86.8833 108.13 79.56C108.246 72.2052 105.736 65.05 101.05 59.38C96.1633 53.7 89.1633 50.86 80.05 50.86L47.33 50.82Z" fill="currentColor"/>
<path d="M480.15 199.48V75.28H508.91V199.48H480.15Z" fill="#7DD79F"/>
<path d="M494.261 54.76C486.385 54.76 480 48.2561 480 40.38C480 32.5039 486.385 26 494.261 26C502.137 26 508.522 32.5039 508.522 40.38C508.522 48.2561 502.137 54.76 494.261 54.76Z" fill="#7DD79F"/>
<path d="M650.17 199.48H621.41V114.25C621.41 106.29 619.14 99.9567 614.6 95.25C612.489 92.9623 609.92 91.145 607.06 89.9165C604.199 88.688 601.113 88.0759 598 88.12C594.922 88.052 591.865 88.6504 589.039 89.8742C586.214 91.098 583.686 92.9181 581.63 95.21C577.27 99.9433 575.09 106.277 575.09 114.21V199.44H546.3V115.3C546.3 98.4133 551.157 85.59 560.87 76.83C570.583 68.07 583.387 63.69 599.28 63.69C615.173 63.69 627.583 69.0767 636.51 79.85C645.27 69.0833 657.46 63.6967 673.08 63.69C688.7 63.6833 701.397 68.0633 711.17 76.83C720.93 85.61 725.81 98.4333 725.81 115.3V199.48H697.05V114.25C697.05 106.29 694.867 99.9567 690.5 95.25C688.445 92.9566 685.918 91.1353 683.092 89.9114C680.266 88.6875 677.209 88.09 674.13 88.16C670.979 88.1218 667.854 88.7314 664.949 89.951C662.043 91.1706 659.419 92.9743 657.24 95.25C652.52 99.9833 650.163 106.317 650.17 114.25V199.48Z" fill="#7DD79F"/>
<path d="M326.68 187.78C320.06 180.847 316.75 169.233 316.75 152.94L317.05 27.74L343.05 26.21L342.74 145.6C342.74 154.773 343.913 161.547 346.26 165.92C348.607 170.293 353.24 172.587 360.16 172.8C362.906 173.046 365.663 173.15 368.42 173.11V198.17H358C343.74 198.17 333.3 194.707 326.68 187.78Z" fill="currentColor"/>
<path d="M449.49 173.11V197.86C444.157 198.273 440.693 198.477 439.1 198.47C424.827 198.47 414.383 194.957 407.77 187.93C401.157 180.903 397.847 169.237 397.84 152.93V91.21H381V66.14H398.11V27.33L424.11 26.11V66.11H448.25V91.21H423.82V145.6C423.82 154.98 424.94 161.807 427.18 166.08C429.42 170.353 434.003 172.593 440.93 172.8C443 173 445.82 173.11 449.49 173.11Z" fill="#7DD79F"/>
<path d="M198.63 153.71C207.81 170.83 224.5 176.39 242 168.71C255.91 162.65 262.58 151.76 265 139L291 148.21C286.58 165.55 276.76 182.96 252.78 193.41C217.54 208.77 182.93 194.19 167.35 158.41C152.51 124.41 161.03 86.97 195.08 72.13C232.97 55.62 262.08 79.13 275.03 108.9C276.81 112.98 278.97 118.6 278.97 118.6L198.63 153.71ZM190.56 131.27L240.68 109.42C235.94 99.21 224.4 89.12 206.18 97.06C190.84 103.75 187.81 119.06 190.56 131.27Z" fill="#151B49"/>
<path d="M636.53 258.1C611.22 258.1 587.78 247.69 571.89 229.31L590.45 213.31C602.02 226.7 619.45 234.09 638.39 233.58C656.02 233.1 672.04 225.71 681.24 213.82L700.64 228.82C687 246.44 664 257.38 639.05 258.06C638.21 258.08 637.37 258.1 636.53 258.1Z" fill="#7DD79F"/>
<path d="M27.7908 233.238L24.3492 232.671C21.6228 232.185 19.5174 231.227 18.0327 229.796C16.5751 228.366 15.8463 226.517 15.8463 224.249C15.8463 221.82 16.818 219.863 18.7615 218.378C20.6781 216.893 23.04 216.151 25.8473 216.151C29.9773 216.151 33.4729 217.663 36.3342 220.686L32.9735 224.249C30.8951 221.766 28.4522 220.524 25.6448 220.524C24.0792 220.524 22.8645 220.875 22.0007 221.577C21.137 222.252 20.7051 223.102 20.7051 224.128C20.7051 226.206 22.2707 227.488 25.4019 227.974L28.2362 228.46C31.2595 228.946 33.5269 229.945 35.0385 231.456C36.5502 232.941 37.306 234.857 37.306 237.206C37.306 239.635 36.3342 241.619 34.3907 243.158C32.4202 244.67 29.7748 245.425 26.4546 245.425C21.8118 245.425 18.0462 243.617 15.1579 240L18.4376 236.68C19.5444 238.137 20.7726 239.23 22.1222 239.959C23.4719 240.688 25.1185 241.052 27.062 241.052C28.7626 241.052 30.0853 240.715 31.03 240.04C31.9748 239.338 32.4472 238.421 32.4472 237.287C32.4472 235.1 30.8951 233.751 27.7908 233.238ZM52.1202 224.654C54.9545 224.654 57.3705 225.653 59.368 227.65C61.3655 229.648 62.3642 232.118 62.3642 235.06C62.3642 238.002 61.3655 240.472 59.368 242.47C57.3974 244.44 54.9815 245.425 52.1202 245.425C49.232 245.425 46.8026 244.44 44.832 242.47C42.8615 240.499 41.8763 238.029 41.8763 235.06C41.8763 232.091 42.8615 229.621 44.832 227.65C46.8296 225.653 49.259 224.654 52.1202 224.654ZM48.1117 239.514C49.1645 240.675 50.5006 241.255 52.1202 241.255C53.7398 241.255 55.049 240.675 56.0478 239.514C57.1005 238.353 57.6269 236.868 57.6269 235.06C57.6269 233.251 57.1005 231.767 56.0478 230.606C55.049 229.445 53.7398 228.865 52.1202 228.865C50.5006 228.865 49.1645 229.445 48.1117 230.606C47.086 231.767 46.5731 233.251 46.5731 235.06C46.5731 236.868 47.086 238.353 48.1117 239.514ZM66.4822 225.14H71.098V237.003C71.098 238.326 71.422 239.379 72.0698 240.162C72.7176 240.917 73.6354 241.295 74.8231 241.295C76.0918 241.295 77.0906 240.85 77.8194 239.959C78.5752 239.041 78.9531 237.827 78.9531 236.315V225.14H83.569V244.98H79.0341V243.36C77.7654 244.737 76.0513 245.425 73.8918 245.425C71.6244 245.425 69.8159 244.656 68.4662 243.117C67.1435 241.552 66.4822 239.406 66.4822 236.68V225.14ZM101.529 224.897V229.27C101.394 229.243 101.151 229.229 100.8 229.229C98.5599 229.229 96.9807 229.85 96.063 231.092C95.1452 232.334 94.6863 234.372 94.6863 237.206V244.98H90.0705V225.14H94.6053V227.286C95.955 225.666 97.966 224.856 100.638 224.856C101.016 224.856 101.313 224.87 101.529 224.897ZM109.622 244.98H105.007V225.14H109.622V244.98ZM107.355 222.022C106.545 222.022 105.857 221.739 105.29 221.172C104.723 220.605 104.44 219.917 104.44 219.107C104.44 218.297 104.723 217.622 105.29 217.082C105.857 216.516 106.545 216.232 107.355 216.232C108.165 216.232 108.853 216.516 109.42 217.082C109.987 217.622 110.27 218.297 110.27 219.107C110.27 219.917 109.987 220.605 109.42 221.172C108.853 221.739 108.165 222.022 107.355 222.022ZM132.657 234.817L132.617 236.437H119.053C119.161 237.921 119.687 239.095 120.632 239.959C121.577 240.823 122.791 241.255 124.276 241.255C126.408 241.255 128.109 240.324 129.378 238.461L132.495 241.376C130.39 244.076 127.65 245.425 124.276 245.425C121.28 245.425 118.877 244.481 117.069 242.591C115.233 240.675 114.315 238.205 114.315 235.181C114.315 232.239 115.152 229.742 116.826 227.691C118.526 225.666 120.78 224.654 123.588 224.654C126.584 224.654 128.838 225.653 130.349 227.65C131.888 229.648 132.657 232.037 132.657 234.817ZM123.628 228.865C122.467 228.865 121.509 229.229 120.753 229.958C120.025 230.687 119.539 231.618 119.296 232.752H127.758C127.731 231.645 127.367 230.728 126.665 229.999C125.963 229.243 124.951 228.865 123.628 228.865ZM136.836 229.27V225.14H151.939V229.067L142.262 240.81H152.425V244.98H136.634V241.052L146.23 229.27H136.836ZM164.527 240.364L159.79 250.568H155.336L159.466 240.364H164.527ZM190.839 225.14H195.819L188.774 244.98H183.753L176.708 225.14H181.688L186.264 239.028L190.839 225.14ZM207.2 224.654C210.034 224.654 212.45 225.653 214.448 227.65C216.445 229.648 217.444 232.118 217.444 235.06C217.444 238.002 216.445 240.472 214.448 242.47C212.477 244.44 210.061 245.425 207.2 245.425C204.312 245.425 201.882 244.44 199.912 242.47C197.941 240.499 196.956 238.029 196.956 235.06C196.956 232.091 197.941 229.621 199.912 227.65C201.909 225.653 204.339 224.654 207.2 224.654ZM203.192 239.514C204.244 240.675 205.581 241.255 207.2 241.255C208.82 241.255 210.129 240.675 211.128 239.514C212.18 238.353 212.707 236.868 212.707 235.06C212.707 233.251 212.18 231.767 211.128 230.606C210.129 229.445 208.82 228.865 207.2 228.865C205.581 228.865 204.244 229.445 203.192 230.606C202.166 231.767 201.653 233.251 201.653 235.06C201.653 236.868 202.166 238.353 203.192 239.514ZM221.562 225.14H226.178V237.003C226.178 238.326 226.502 239.379 227.15 240.162C227.798 240.917 228.715 241.295 229.903 241.295C231.172 241.295 232.17 240.85 232.899 239.959C233.655 239.041 234.033 237.827 234.033 236.315V225.14H238.649V244.98H234.114V243.36C232.845 244.737 231.131 245.425 228.972 245.425C226.704 245.425 224.896 244.656 223.546 243.117C222.223 241.552 221.562 239.406 221.562 236.68V225.14ZM252.327 237.489L249.696 236.842C245.674 235.897 243.663 233.805 243.663 230.566C243.663 228.784 244.337 227.353 245.687 226.274C247.037 225.194 248.778 224.654 250.91 224.654C253.772 224.654 256.269 225.761 258.401 227.974L255.445 231.132C254.231 229.459 252.678 228.622 250.789 228.622C249.979 228.622 249.318 228.811 248.805 229.189C248.319 229.54 248.076 229.972 248.076 230.485C248.076 231.402 248.724 232.023 250.02 232.347L253.137 233.076C257.186 233.994 259.211 236.059 259.211 239.271C259.211 241.106 258.509 242.591 257.105 243.725C255.729 244.859 253.812 245.425 251.356 245.425C247.901 245.425 245.161 244.143 243.136 241.579L246.052 238.583C247.509 240.499 249.399 241.457 251.72 241.457C253.745 241.457 254.757 240.783 254.757 239.433C254.757 238.569 253.947 237.921 252.327 237.489ZM277.782 236.437C277.89 237.921 278.416 239.095 279.361 239.959C280.306 240.823 281.52 241.255 283.005 241.255C285.137 241.255 286.838 240.324 288.107 238.461L291.224 241.376C289.119 244.076 286.379 245.425 283.005 245.425C280.009 245.425 277.606 244.481 275.798 242.591C273.962 240.675 273.044 238.205 273.044 235.181C273.044 232.239 273.881 229.742 275.555 227.691C277.255 225.666 279.509 224.654 282.317 224.654C285.313 224.654 287.567 225.653 289.078 227.65C290.617 229.648 291.386 232.037 291.386 234.817C291.386 235.492 291.373 236.032 291.346 236.437H277.782ZM282.357 228.865C281.196 228.865 280.238 229.229 279.482 229.958C278.754 230.687 278.268 231.618 278.025 232.752H286.487C286.46 231.645 286.096 230.728 285.394 229.999C284.692 229.243 283.68 228.865 282.357 228.865ZM275.96 221.901L279.887 216.597H285.11L289.038 221.901H284.503L282.479 219.471L280.454 221.901H275.96ZM303.004 245.02C300.44 245.02 298.658 244.494 297.659 243.441C296.66 242.389 296.161 240.567 296.161 237.975V229.27H293.246V225.14H296.161V219.593H300.736V225.14H305.474V229.27H300.736V237.287C300.736 238.718 300.952 239.676 301.384 240.162C301.816 240.648 302.68 240.891 303.976 240.891L305.474 240.81V244.94C304.664 244.993 303.841 245.02 303.004 245.02ZM326.804 234.817L326.763 236.437H313.199C313.307 237.921 313.833 239.095 314.778 239.959C315.723 240.823 316.938 241.255 318.422 241.255C320.555 241.255 322.255 240.324 323.524 238.461L326.642 241.376C324.536 244.076 321.797 245.425 318.422 245.425C315.426 245.425 313.024 244.481 311.215 242.591C309.38 240.675 308.462 238.205 308.462 235.181C308.462 232.239 309.299 229.742 310.972 227.691C312.673 225.666 314.927 224.654 317.734 224.654C320.73 224.654 322.984 225.653 324.496 227.65C326.034 229.648 326.804 232.037 326.804 234.817ZM317.775 228.865C316.614 228.865 315.656 229.229 314.9 229.958C314.171 230.687 313.685 231.618 313.442 232.752H321.905C321.878 231.645 321.513 230.728 320.811 229.999C320.109 229.243 319.097 228.865 317.775 228.865ZM339.515 237.489L336.884 236.842C332.862 235.897 330.851 233.805 330.851 230.566C330.851 228.784 331.525 227.353 332.875 226.274C334.225 225.194 335.966 224.654 338.098 224.654C340.96 224.654 343.456 225.761 345.589 227.974L342.633 231.132C341.418 229.459 339.866 228.622 337.977 228.622C337.167 228.622 336.506 228.811 335.993 229.189C335.507 229.54 335.264 229.972 335.264 230.485C335.264 231.402 335.912 232.023 337.208 232.347L340.325 233.076C344.374 233.994 346.399 236.059 346.399 239.271C346.399 241.106 345.697 242.591 344.293 243.725C342.917 244.859 341 245.425 338.544 245.425C335.089 245.425 332.349 244.143 330.324 241.579L333.239 238.583C334.697 240.499 336.587 241.457 338.908 241.457C340.933 241.457 341.945 240.783 341.945 239.433C341.945 238.569 341.135 237.921 339.515 237.489ZM370.314 228.865C368.749 228.865 367.453 229.445 366.427 230.606C365.429 231.767 364.929 233.251 364.929 235.06C364.929 236.868 365.442 238.353 366.468 239.514C367.494 240.675 368.789 241.255 370.355 241.255C371.462 241.255 372.393 241.025 373.149 240.567C373.905 240.081 374.674 239.284 375.457 238.178L378.615 241.133C376.644 243.995 373.837 245.425 370.193 245.425C367.44 245.425 365.091 244.44 363.148 242.47C361.204 240.472 360.232 238.002 360.232 235.06C360.232 232.118 361.204 229.648 363.148 227.65C365.091 225.653 367.44 224.654 370.193 224.654C373.486 224.654 376.172 225.977 378.25 228.622L375.052 231.699C373.648 229.81 372.069 228.865 370.314 228.865ZM399.243 234.817L399.202 236.437H385.638C385.746 237.921 386.273 239.095 387.217 239.959C388.162 240.823 389.377 241.255 390.862 241.255C392.994 241.255 394.695 240.324 395.963 238.461L399.081 241.376C396.975 244.076 394.236 245.425 390.862 245.425C387.865 245.425 385.463 244.481 383.654 242.591C381.819 240.675 380.901 238.205 380.901 235.181C380.901 232.239 381.738 229.742 383.411 227.691C385.112 225.666 387.366 224.654 390.173 224.654C393.169 224.654 395.423 225.653 396.935 227.65C398.474 229.648 399.243 232.037 399.243 234.817ZM390.214 228.865C389.053 228.865 388.095 229.229 387.339 229.958C386.61 230.687 386.124 231.618 385.881 232.752H394.344C394.317 231.645 393.952 230.728 393.25 229.999C392.549 229.243 391.536 228.865 390.214 228.865ZM415.801 224.897V229.27C415.666 229.243 415.423 229.229 415.072 229.229C412.832 229.229 411.253 229.85 410.335 231.092C409.417 232.334 408.958 234.372 408.958 237.206V244.98H404.342V225.14H408.877V227.286C410.227 225.666 412.238 224.856 414.91 224.856C415.288 224.856 415.585 224.87 415.801 224.897ZM427.36 245.02C424.796 245.02 423.014 244.494 422.016 243.441C421.017 242.389 420.518 240.567 420.518 237.975V229.27H417.602V225.14H420.518V219.593H425.093V225.14H429.83V229.27H425.093V237.287C425.093 238.718 425.309 239.676 425.741 240.162C426.173 240.648 427.036 240.891 428.332 240.891L429.83 240.81V244.94C429.02 244.993 428.197 245.02 427.36 245.02ZM438.643 244.98H434.027V225.14H438.643V244.98ZM436.376 222.022C435.566 222.022 434.878 221.739 434.311 221.172C433.744 220.605 433.46 219.917 433.46 219.107C433.46 218.297 433.744 217.622 434.311 217.082C434.878 216.516 435.566 216.232 436.376 216.232C437.186 216.232 437.874 216.516 438.441 217.082C439.008 217.622 439.291 218.297 439.291 219.107C439.291 219.917 439.008 220.605 438.441 221.172C437.874 221.739 437.186 222.022 436.376 222.022ZM453.337 216.597L455.119 216.637V220.888C454.849 220.861 454.498 220.848 454.066 220.848C452.608 220.848 451.542 221.172 450.867 221.82C450.22 222.441 449.896 223.466 449.896 224.897V225.14H454.673V229.27H449.896V244.98H445.361V229.27H442.445V225.14H445.361V224.128C445.361 219.107 448.02 216.597 453.337 216.597ZM463.238 244.98H458.622V225.14H463.238V244.98ZM460.97 222.022C460.16 222.022 459.472 221.739 458.905 221.172C458.338 220.605 458.055 219.917 458.055 219.107C458.055 218.297 458.338 217.622 458.905 217.082C459.472 216.516 460.16 216.232 460.97 216.232C461.78 216.232 462.468 216.516 463.035 217.082C463.602 217.622 463.886 218.297 463.886 219.107C463.886 219.917 463.602 220.605 463.035 221.172C462.468 221.739 461.78 222.022 460.97 222.022ZM473.154 236.437C473.262 237.921 473.788 239.095 474.733 239.959C475.678 240.823 476.893 241.255 478.377 241.255C480.51 241.255 482.21 240.324 483.479 238.461L486.597 241.376C484.491 244.076 481.751 245.425 478.377 245.425C475.381 245.425 472.978 244.481 471.17 242.591C469.334 240.675 468.417 238.205 468.417 235.181C468.417 232.239 469.253 229.742 470.927 227.691C472.628 225.666 474.882 224.654 477.689 224.654C480.685 224.654 482.939 225.653 484.451 227.65C485.989 229.648 486.759 232.037 486.759 234.817C486.759 235.492 486.745 236.032 486.718 236.437H473.154ZM477.729 228.865C476.569 228.865 475.61 229.229 474.855 229.958C474.126 230.687 473.64 231.618 473.397 232.752H481.859C481.832 231.645 481.468 230.728 480.766 229.999C480.064 229.243 479.052 228.865 477.729 228.865ZM474.328 221.901L478.013 216.597H483.681L478.863 221.901H474.328ZM507.719 236.437H502.941V216.597H507.719V236.437ZM502.455 242.551C502.455 241.741 502.739 241.052 503.305 240.486C503.872 239.919 504.561 239.635 505.37 239.635C506.18 239.635 506.869 239.919 507.435 240.486C508.002 241.052 508.286 241.741 508.286 242.551C508.286 243.333 508.002 244.008 507.435 244.575C506.869 245.142 506.18 245.425 505.37 245.425C504.561 245.425 503.872 245.142 503.305 244.575C502.739 244.008 502.455 243.333 502.455 242.551Z" fill="#151B49"/>
</svg>
