<svg width="1173" height="1067" viewBox="0 0 1173 1067" fill="none" xmlns="http://www.w3.org/2000/svg">
<g clip-path="url(#clip0_340_53)">
<path d="M928.984 233.752L960.784 237.143L1023.51 199.456L987.062 189.673L928.984 233.752Z" fill="#66CC99"/>
<path d="M773.929 513.508C860.652 513.508 930.955 443.205 930.955 356.482C930.955 269.759 860.652 199.456 773.929 199.456C687.205 199.456 616.902 269.759 616.902 356.482C616.902 443.205 687.205 513.508 773.929 513.508Z" fill="#151B49"/>
<path d="M773.928 493.599C849.656 493.599 911.045 432.21 911.045 356.482C911.045 280.754 849.656 219.365 773.928 219.365C698.2 219.365 636.811 280.754 636.811 356.482C636.811 432.21 698.2 493.599 773.928 493.599Z" fill="#EAEAEA"/>
<path d="M773.927 466.634C834.763 466.634 884.079 417.317 884.079 356.482C884.079 295.647 834.763 246.33 773.927 246.33C713.092 246.33 663.775 295.647 663.775 356.482C663.775 417.317 713.092 466.634 773.927 466.634Z" fill="#151B49"/>
<path d="M773.929 420.928C809.521 420.928 838.375 392.075 838.375 356.482C838.375 320.889 809.521 292.036 773.929 292.036C738.336 292.036 709.482 320.889 709.482 356.482C709.482 392.075 738.336 420.928 773.929 420.928Z" fill="#EAEAEA"/>
<path d="M773.93 382.256C768.833 382.256 763.85 380.744 759.611 377.912C755.373 375.08 752.069 371.055 750.118 366.345C748.167 361.636 747.657 356.453 748.651 351.454C749.646 346.454 752.101 341.862 755.705 338.257C759.31 334.653 763.902 332.198 768.902 331.203C773.902 330.209 779.084 330.719 783.793 332.67C788.503 334.621 792.528 337.924 795.36 342.163C798.193 346.401 799.704 351.384 799.704 356.482C799.692 363.314 796.973 369.863 792.142 374.694C787.311 379.525 780.762 382.244 773.93 382.256Z" fill="#151B49"/>
<path d="M976.478 172.697L773.93 352.221L991.691 190.475C996.273 183.969 994.669 175.675 989.606 172.284C987.601 171.109 985.305 170.523 982.983 170.596C980.66 170.669 978.405 171.397 976.478 172.697Z" fill="#2D1929"/>
<path d="M922.774 224.84L920.781 200.258C940.179 178.875 959.591 157.492 979.019 136.109L980.989 178.218L922.774 224.84Z" fill="#66CC99"/>
<path d="M810.835 170.589L780.57 108.709L795.714 100.301L810.835 170.589Z" fill="#66CC99"/>
<path d="M848.386 157.484L844.469 73.954H861.285L848.386 157.484Z" fill="#66CC99"/>
<path d="M879.223 160.852L904.378 96.9558L920.782 105.364L879.223 160.852Z" fill="#66CC99"/>
<path d="M765.703 588.127C776.173 563.429 752.232 571.311 752.232 571.311C762.725 543.979 733.904 557.358 733.904 557.358C733.904 557.358 741.281 550.21 739.311 543.154C738.647 540.902 737.242 538.941 735.325 537.587C723.87 529.774 697.798 563.773 680.661 556.74C670.054 552.387 672.826 536.441 656.514 528.079C654.223 526.865 645.059 522.26 641.347 525.559C634.818 531.332 654.039 552.57 650.328 582.834C649.572 589.135 648.633 589.02 647.441 598.001C645.765 610.562 645.888 623.299 647.808 635.826L644.99 694.98H730.468C730.376 682.929 730.292 670.87 730.216 658.804C736.631 652.183 773.928 613.488 778.006 598.986C778.51 597.245 779.679 593.075 777.525 590.28C774.593 586.5 767.261 587.829 765.703 588.127Z" fill="#E39C76"/>
<path d="M736.104 615.069C734.385 611.518 737.318 607.096 741.831 602.858C733.171 606.615 724.259 608.837 719.563 605.149C714.866 601.46 719.15 595.595 723.159 591.403C715.828 594.679 708.978 596.122 704.992 593.098C699.425 588.837 704.671 581.437 709.413 576.282C700.868 581.322 692.414 584.759 688.909 581.506C681.761 574.907 699.424 557.083 706.618 550.623C706.723 550.516 706.848 550.431 706.985 550.373C707.123 550.316 707.271 550.286 707.42 550.286C707.569 550.286 707.717 550.316 707.855 550.373C707.993 550.431 708.117 550.516 708.222 550.623C708.329 550.729 708.415 550.856 708.473 550.995C708.531 551.135 708.561 551.285 708.561 551.436C708.561 551.587 708.531 551.737 708.473 551.877C708.415 552.016 708.329 552.143 708.222 552.249C702.586 557.29 685.312 574.862 690.535 579.742C694.064 582.995 707.283 575.503 719.288 567.049C725.29 562.078 730.743 558.343 731.224 557.885C731.467 557.703 731.772 557.625 732.073 557.668C732.374 557.711 732.645 557.871 732.828 558.114C733.01 558.357 733.088 558.663 733.045 558.964C733.002 559.264 732.841 559.536 732.598 559.718C731.338 560.749 726.642 564.529 720.708 568.745C714.82 573.647 700.341 586.408 706.458 591.059C710.765 594.358 720.387 590.555 729.941 585.102C736.849 579.643 744.121 574.66 751.705 570.188C751.955 570.033 752.254 569.98 752.542 570.039C752.829 570.099 753.083 570.266 753.25 570.507C753.418 570.748 753.486 571.045 753.442 571.335C753.397 571.625 753.243 571.887 753.011 572.067C746.087 577.614 738.775 582.659 731.132 587.164C726.688 590.784 716.584 599.536 721.075 603.202C726.367 607.463 739.723 601.873 750.56 595.893C754.591 593.109 758.767 590.539 763.069 588.195C763.326 588.067 763.621 588.039 763.897 588.118C764.173 588.197 764.41 588.377 764.559 588.622C764.709 588.867 764.762 589.159 764.706 589.44C764.651 589.722 764.492 589.973 764.26 590.143C763.733 590.509 758.601 594.06 751.866 597.795C743.527 603.614 736.424 610.212 738.234 613.992C741.144 619.995 754.271 612.48 759.632 608.677C759.753 608.585 759.891 608.518 760.038 608.481C760.185 608.444 760.338 608.437 760.488 608.46C760.638 608.484 760.782 608.537 760.91 608.618C761.039 608.699 761.15 608.804 761.236 608.929C761.324 609.052 761.387 609.191 761.42 609.339C761.454 609.486 761.458 609.639 761.433 609.788C761.407 609.937 761.352 610.08 761.272 610.208C761.191 610.335 761.085 610.446 760.961 610.533C753.744 615.756 739.998 623.156 736.104 615.069Z" fill="#2D1929"/>
<path d="M694.453 610.831C694.149 610.831 693.857 610.71 693.643 610.495C693.428 610.28 693.307 609.989 693.307 609.685C693.307 588.264 677.384 563.498 677.27 563.246C677.104 562.994 677.045 562.686 677.105 562.39C677.165 562.094 677.34 561.833 677.591 561.665C677.716 561.581 677.857 561.523 678.006 561.495C678.154 561.467 678.307 561.469 678.454 561.501C678.602 561.533 678.741 561.595 678.865 561.682C678.988 561.769 679.092 561.88 679.172 562.009C679.859 563.04 695.644 587.6 695.644 609.685C695.644 609.839 695.613 609.992 695.553 610.134C695.492 610.276 695.404 610.405 695.292 610.512C695.181 610.619 695.049 610.702 694.905 610.757C694.761 610.812 694.607 610.837 694.453 610.831Z" fill="#2D1929"/>
<path d="M375.978 607.119C348.073 608.036 286.032 615.023 241.335 669.504C229.33 684.12 221.884 700.089 206.969 732.025C180.989 787.766 147.747 859.314 157.163 936.315C159.889 958.561 171.115 1015.08 186.946 1066.9L299.733 1066.08C288.568 1013.57 277.418 961.058 266.284 908.548C275.988 861.932 290.396 816.421 309.286 772.714C318.29 752.163 345.942 700.02 375.978 607.119Z" fill="#66CC99"/>
<path d="M445.189 604.943C465.625 601.506 512.843 596.649 549.018 624.966C557.22 631.381 569.637 643.523 589.455 688.977C606.81 729.205 619.493 771.291 627.256 814.41C633.732 761.992 640.224 709.573 646.73 657.155L730.581 667.648C739.418 730.51 742.928 794.006 741.074 857.458C739.058 923.165 732.116 955.56 707.373 974.3C684.211 991.826 655.688 989.604 648.975 988.917C632.686 987.199 587.416 977.76 527.987 871.342C498.868 819.13 459.119 730.834 445.189 604.943Z" fill="#66CC99"/>
<mask id="mask0_340_53" style="mask-type:luminance" maskUnits="userSpaceOnUse" x="367" y="491" width="93" height="186">
<path d="M367.342 491.492H459.601V676.17H367.342V491.492Z" fill="white"/>
</mask>
<g mask="url(#mask0_340_53)">
<path d="M367.342 491.492H459.601V676.17H367.342V491.492Z" fill="#E39C76"/>
<path d="M355.268 576.694C373.407 589.081 394.862 595.707 416.827 595.707C438.792 595.707 460.247 589.081 478.387 576.694V511.355H360.697L355.268 576.694Z" fill="#D48F6E"/>
</g>
<path d="M530.094 388.762C529.476 407.984 517.86 452.705 515.386 468.009C500.746 516.12 463.082 575.366 411.855 572.846C349.7 569.134 324.796 493.164 317.58 470.093C309.905 445.282 303.65 421.203 302.619 417.56C300.22 409.13 299.306 400.347 299.916 391.603C298.656 386.494 297.396 381.546 296.182 377.055C296.182 377.055 298.266 276.251 369.677 250.683C370.342 250.545 370.96 250.5 371.602 250.385C418.568 232.309 452.727 250.041 456.026 250.683C467.636 254.838 478.26 261.351 487.229 269.813C528.124 308.119 529.59 377.032 529.59 377.055C530.059 380.939 530.227 384.853 530.094 388.762Z" fill="#E39C76"/>
<path d="M416.712 468.948C424.983 466.863 429.771 463.77 430.939 459.784C433.62 450.62 415.841 443.747 418.545 409.931C418.569 409.628 418.713 409.346 418.945 409.148C419.177 408.951 419.478 408.853 419.782 408.878C420.086 408.902 420.367 409.046 420.565 409.278C420.763 409.51 420.86 409.811 420.836 410.115C418.109 444.159 436.392 449.245 433.139 460.517C431.718 465.374 426.38 469.017 417.262 471.308C417.107 471.344 416.946 471.349 416.789 471.323C416.632 471.297 416.482 471.241 416.347 471.157C416.212 471.073 416.095 470.963 416.002 470.833C415.909 470.704 415.843 470.558 415.807 470.403C415.771 470.248 415.766 470.087 415.792 469.93C415.818 469.773 415.874 469.623 415.958 469.488C416.042 469.353 416.152 469.236 416.281 469.143C416.411 469.05 416.557 468.984 416.712 468.948Z" fill="#2D1929"/>
<path d="M473.163 417.102C473.163 425.281 468.856 431.879 463.587 431.879C458.317 431.879 454.033 425.258 454.033 417.079C454.033 408.9 458.317 402.325 463.61 402.325C468.902 402.325 473.163 408.946 473.163 417.102Z" fill="#2D1929"/>
<path d="M487.804 380.171C487.258 380.171 486.73 379.976 486.315 379.621C485.559 378.957 467.414 363.79 446.337 375.818C446.076 375.984 445.784 376.095 445.479 376.145C445.174 376.196 444.862 376.184 444.562 376.11C444.262 376.036 443.98 375.903 443.733 375.718C443.486 375.532 443.279 375.299 443.124 375.031C442.969 374.764 442.87 374.468 442.833 374.161C442.796 373.854 442.821 373.543 442.907 373.246C442.993 372.95 443.138 372.673 443.334 372.434C443.53 372.195 443.772 371.998 444.046 371.855C467.987 358.109 489.064 375.956 489.293 376.139C489.649 376.443 489.903 376.849 490.021 377.303C490.139 377.756 490.115 378.234 489.953 378.674C489.791 379.113 489.498 379.492 489.114 379.76C488.729 380.028 488.272 380.171 487.804 380.171Z" fill="#2D1929"/>
<path d="M345.944 380.171C345.475 380.171 345.018 380.028 344.634 379.76C344.25 379.492 343.957 379.113 343.794 378.674C343.632 378.235 343.608 377.756 343.726 377.303C343.844 376.85 344.098 376.443 344.454 376.139C344.661 375.956 365.761 358.2 389.679 371.855C390.178 372.172 390.535 372.669 390.675 373.243C390.816 373.817 390.729 374.423 390.433 374.935C390.138 375.446 389.656 375.824 389.088 375.989C388.521 376.153 387.912 376.092 387.388 375.818C366.311 363.79 348.166 378.957 347.41 379.621C347.001 379.971 346.482 380.166 345.944 380.171Z" fill="#2D1929"/>
<path d="M394.054 601.506C394.054 601.506 296.617 622.629 277.212 665.93C257.807 709.23 277.212 1066.97 277.212 1066.97H564.987C564.987 1066.97 568.859 727.901 552.088 666.044C535.318 604.187 394.054 601.506 394.054 601.506Z" fill="#EAEAEA"/>
<path d="M367.342 606.684C367.342 606.684 383.379 648.174 413.46 652.298C443.541 656.422 459.601 603.064 459.601 603.064C429.16 595.183 397.072 596.442 367.342 606.684Z" fill="#E39C76"/>
<path d="M367.341 578.642C367.341 578.642 355.542 578.413 351.052 588.906C346.562 599.398 338.543 617.612 338.543 617.612C338.543 617.612 363.744 688.427 385.028 691.222C406.311 694.017 419.851 652.527 419.851 652.527C419.851 652.527 376.597 651.359 367.341 578.642Z" fill="#EAEAEA"/>
<path d="M419.852 652.527C419.852 652.527 457.035 607.371 459.601 578.642C462.873 577.925 466.288 578.251 469.365 579.574C472.443 580.898 475.029 583.151 476.76 586.019C481.871 595.527 486.386 605.344 490.277 615.413C490.277 615.413 472.316 679.424 455.11 687.855C437.905 696.286 419.852 652.527 419.852 652.527Z" fill="#EAEAEA"/>
<path d="M341.612 610.441C345.622 758.83 377.421 837.618 387.181 879.75C401.415 941.076 405.593 1004.31 399.552 1066.97L272.63 1066.56C271.553 967.633 266.009 888.479 261.015 833.563C253.637 752.324 245.917 697.637 277.052 654.566C296.411 628.059 323.032 616.283 341.612 610.441Z" fill="#66CC99"/>
<path d="M484.871 602.652C484.871 602.652 493.829 791.454 490.163 908.594C486.498 1025.73 484.871 1066.97 484.871 1066.97L577.084 1066.74C562.995 907.196 583.522 866.783 571.861 727.145C568.493 686.824 563.27 654.039 537.748 629.319C525.033 616.993 507.896 607.623 484.871 602.652Z" fill="#66CC99"/>
<path d="M419.852 652.527C419.852 652.527 401.523 691.222 385.028 691.222C368.533 691.222 343.652 630.74 343.652 630.74C343.652 630.74 365.738 701.761 381.752 704.327C397.766 706.893 419.852 652.527 419.852 652.527Z" fill="#C6C6C6"/>
<path d="M419.852 652.527C419.852 652.527 435.889 691.612 449.635 696.835C463.381 702.059 486.131 628.609 486.131 628.609C486.131 628.609 458.066 680.752 450.574 681.485C443.082 682.219 419.852 652.527 419.852 652.527Z" fill="#C6C6C6"/>
<path d="M419.851 653.604L393.183 699.081L408.991 734.156C408.991 734.156 356.642 884.699 390.48 962.639C424.318 1040.58 419.851 1066.97 419.851 1066.97C441.457 1082.82 465.159 1095.58 490.277 1104.91C496.05 1084.02 501.816 1063.12 507.574 1042.23C507.574 1042.23 494.836 993.568 470.918 954.804C431.007 888.483 417.129 809.711 431.97 733.744C437.805 718.745 443.639 703.731 449.474 688.702L419.851 653.604Z" fill="#151B49"/>
<path d="M309.287 793.425L330.823 800.55C329.295 808.293 327.73 816.029 326.126 823.758L374.993 869.807L337.925 818.145L348.028 790.057L326.699 783.894C332.862 552.501 326.653 563.59 309.287 793.425Z" fill="#15363C"/>
<path d="M504.55 607.829L532.157 759.036L506.955 778.281L526.612 793.425C517.082 818.901 507.536 844.361 497.975 869.807C512.377 843.048 526.796 816.281 541.229 789.507L528.514 777.594L549.133 760.228L504.55 607.829Z" fill="#15363C"/>
<path d="M247.637 741.167L259.619 924.287L247.637 1066.54L265.759 1066.97L272.357 930.886L304.546 930.061L272.357 911.916L247.637 741.167Z" fill="#15363C"/>
<path d="M257.739 829.348C254.257 849.203 250.767 869.059 247.269 888.914L201.953 890.426L247.636 912.511C250.889 928.732 254.135 944.952 257.373 961.173C260.962 940.737 264.567 920.301 268.186 899.865L257.739 829.348Z" fill="#15363C"/>
<path d="M571.975 721.532L572.318 936.888L589.913 956.568L571.975 721.532Z" fill="#15363C"/>
<path d="M627.257 814.41C615.687 853.505 615.687 895.113 627.257 934.207C619.402 924.741 613.542 913.784 610.029 901.996C597.359 858.718 622.812 820.802 627.257 814.41Z" fill="#15363C"/>
<path d="M320.26 402.325L326.996 351.052C326.996 351.052 360.88 340.559 367.341 310.982C373.801 281.405 378.292 259.687 403.012 263.81C403.012 263.81 422.463 248.094 434.834 267.568C447.206 287.041 443.815 351.785 502.213 349.174L514.195 399.576L537.243 402.44L544.116 366.883C544.116 366.883 563.039 360.01 560.794 330.227C558.549 300.444 536.83 307.317 518.479 266.216C500.128 225.115 442.876 197.715 401.866 220.167C401.866 220.167 339.528 214.004 309.195 252.745C278.862 291.486 256.96 343.721 279.412 351.007L289.515 402.486L320.26 402.325Z" fill="#2D1929"/>
<path d="M547.002 433.598C539.259 452.728 520.243 463.06 504.527 456.714C488.811 450.368 482.281 429.703 490.002 410.596C497.723 391.489 516.761 381.133 532.5 387.479C548.239 393.826 554.723 414.49 547.002 433.598Z" fill="#E39C76"/>
<path d="M519.397 443.357C519.164 443.355 518.937 443.282 518.746 443.147C518.556 443.012 518.411 442.823 518.332 442.603C518.252 442.384 518.241 442.146 518.3 441.92C518.36 441.695 518.486 441.493 518.664 441.341C520.29 439.967 524.46 435.751 524.3 432.612C524.093 428.947 518.572 427.687 518.503 427.687C518.243 427.624 518.012 427.473 517.85 427.261C517.687 427.048 517.602 426.786 517.61 426.518C518.091 413.712 524.895 396.048 537.45 398.545C537.6 398.572 537.742 398.629 537.869 398.712C537.997 398.796 538.106 398.903 538.191 399.029C538.277 399.155 538.336 399.296 538.366 399.445C538.396 399.594 538.396 399.748 538.366 399.897C538.3 400.192 538.123 400.449 537.871 400.616C537.619 400.782 537.312 400.845 537.015 400.79C526.362 398.66 520.611 414.903 519.947 425.694C521.94 426.335 526.339 428.237 526.568 432.567C526.843 437.378 520.84 442.601 520.153 443.174C519.929 443.32 519.662 443.384 519.397 443.357Z" fill="#2D1929"/>
<path d="M329.311 456.714C313.594 463.06 294.579 452.728 286.858 433.598C279.137 414.468 285.621 393.848 301.36 387.479C317.099 381.11 336.092 391.466 343.836 410.596C351.579 429.726 345.05 450.345 329.311 456.714Z" fill="#E39C76"/>
<path d="M314.441 443.357C314.167 443.364 313.9 443.275 313.685 443.105C312.998 442.533 306.995 437.309 307.27 432.475C307.499 428.237 311.852 426.335 313.891 425.602C313.25 414.811 307.499 398.568 296.823 400.699C296.529 400.753 296.225 400.69 295.977 400.523C295.728 400.356 295.555 400.098 295.494 399.805C295.461 399.657 295.458 399.505 295.485 399.356C295.512 399.207 295.569 399.065 295.653 398.939C295.736 398.812 295.845 398.704 295.971 398.621C296.097 398.538 296.239 398.481 296.388 398.453C308.966 395.956 315.747 413.643 316.228 426.427C316.236 426.694 316.151 426.956 315.988 427.169C315.826 427.382 315.595 427.532 315.335 427.595C315.335 427.595 309.744 428.878 309.561 432.521C309.378 435.659 313.548 439.875 315.174 441.25C315.393 441.388 315.559 441.596 315.644 441.84C315.73 442.084 315.73 442.35 315.645 442.595C315.56 442.839 315.394 443.047 315.176 443.186C314.957 443.324 314.698 443.385 314.441 443.357Z" fill="#2D1929"/>
<path d="M388.648 416.071C388.405 416.074 388.169 416.001 387.971 415.861C387.773 415.721 387.625 415.522 387.548 415.292C386.47 412.03 384.391 409.191 381.606 407.178C378.822 405.166 375.473 404.082 372.038 404.082C368.602 404.082 365.254 405.166 362.469 407.178C359.685 409.191 357.605 412.03 356.527 415.292C356.428 415.577 356.222 415.811 355.951 415.943C355.681 416.076 355.37 416.098 355.084 416.003C354.798 415.899 354.564 415.687 354.431 415.414C354.299 415.14 354.278 414.825 354.374 414.536C355.608 410.824 357.979 407.594 361.152 405.306C364.324 403.017 368.137 401.785 372.049 401.785C375.961 401.785 379.774 403.017 382.946 405.306C386.119 407.594 388.49 410.824 389.724 414.536C389.787 414.709 389.807 414.895 389.782 415.077C389.758 415.259 389.69 415.433 389.585 415.584C389.479 415.734 389.339 415.857 389.176 415.942C389.013 416.027 388.831 416.071 388.648 416.071Z" fill="#2D1929"/>
<path d="M395.979 485.123L444.571 490.736C440.722 504.298 427.136 512.202 414.788 509.27C409.45 507.843 404.725 504.712 401.33 500.354C397.935 495.995 396.056 490.647 395.979 485.123Z" fill="#EAEAEA"/>
</g>
<defs>
<clipPath id="clip0_340_53">
<rect width="1173" height="1067" fill="white"/>
</clipPath>
</defs>
</svg>
